<svg width="80" height="16" viewBox="0 0 80 16" fill="none" xmlns="http://www.w3.org/2000/svg">
<g clip-path="url(#clip0_81_4193)">
<path d="M15.9256 7.92768C15.9269 12.4125 12.4314 15.9189 7.96685 15.9067C3.56999 15.8959 -0.00405643 12.4125 3.4554e-06 8.14421C0.00541663 3.46993 3.40489 0.0109127 7.99662 0.00549948C12.4463 8.63047e-05 15.9229 3.47399 15.9242 7.92633L15.9256 7.92768ZM14.3192 7.94122C14.3273 4.38747 11.5409 1.55231 8.0291 1.53878C4.44016 1.52525 1.61178 4.34416 1.60095 7.94798C1.58877 11.5396 4.37656 14.3748 7.9276 14.3856C11.5355 14.3964 14.3111 11.5992 14.3206 7.94122H14.3192Z" fill="#F6F6F6"/>
<path d="M41.8747 15.4653C40.5106 15.74 39.6648 15.3029 38.9164 14.2108C37.6714 12.3947 36.2356 10.7085 34.8796 8.96814C34.797 8.86123 34.7212 8.7462 34.6238 8.65553C34.4167 8.46201 34.1474 8.51614 33.916 8.55809C33.6251 8.61087 33.7496 8.88694 33.7482 9.06287C33.7401 11.0008 33.7266 12.9387 33.7563 14.8753C33.7631 15.3652 33.6629 15.5438 33.1338 15.5221C32.177 15.4829 32.1757 15.5181 32.1757 14.5518C32.1757 10.0454 32.1865 5.54024 32.1621 1.03377C32.1594 0.482983 32.3205 0.359833 32.8401 0.372013C34.5507 0.415318 36.2653 0.320588 37.9718 0.491103C39.635 0.656205 40.9261 1.43706 41.443 3.06236C41.9519 4.65925 41.7259 6.1993 40.4105 7.40373C39.5335 8.20623 38.4279 8.40923 37.2857 8.49313C37.0787 8.50802 36.7715 8.39028 36.6781 8.6244C36.5901 8.84499 36.8689 9.00062 37.0015 9.17113C38.5172 11.1293 40.0383 13.0835 41.5567 15.0404C41.6501 15.1595 41.7381 15.2826 41.8734 15.4667L41.8747 15.4653ZM33.7414 4.41972C33.7414 5.13967 33.7401 5.85827 33.7414 6.57822C33.7414 6.77309 33.6941 7.00451 34.0202 6.99097C35.41 6.93684 36.8134 7.14119 38.1884 6.82993C39.3414 6.56875 40.0532 5.61332 40.0518 4.42242C40.0505 3.22476 39.3387 2.32211 38.1424 2.07716C36.7864 1.79839 35.4087 1.99055 34.0405 1.93507C33.7279 1.92289 33.7401 2.11506 33.7414 2.32888C33.7441 3.02582 33.7414 3.72277 33.7414 4.41972Z" fill="#F6F6F6"/>
<path d="M53.4643 8.54198C55.2899 10.8913 57.0397 13.1405 58.8802 15.5087C58.2211 15.5087 57.6757 15.5047 57.1304 15.5101C56.8489 15.5128 56.7596 15.2814 56.6269 15.1122C55.0463 13.0877 53.4697 11.0591 51.8918 9.03187C51.8092 8.92496 51.7212 8.82211 51.6387 8.7152C51.414 8.42019 51.0892 8.52304 50.8267 8.57175C50.5615 8.62047 50.6954 8.90737 50.6954 9.0833C50.686 11.0442 50.6738 13.0065 50.6995 14.9674C50.7049 15.4154 50.5763 15.5317 50.1379 15.5209C49.1635 15.4966 49.1622 15.5209 49.1622 14.5154C49.1622 10.0509 49.1703 5.58639 49.15 1.12187C49.1473 0.575138 49.2136 0.335605 49.8591 0.365377C51.502 0.438455 53.1503 0.336958 54.7932 0.477701C56.3955 0.615737 57.6798 1.28291 58.3077 2.81484C58.9221 4.31564 58.7665 5.78803 57.7042 7.07095C56.903 8.0372 55.7771 8.34846 54.5807 8.46349C54.2519 8.49462 53.923 8.51086 53.4643 8.54198ZM50.6873 4.45368V5.39963C50.6873 6.98975 50.6873 7.00193 52.2869 6.98705C53.3398 6.97757 54.4075 7.10884 55.4347 6.73939C56.4645 6.36859 57.1101 5.36445 57.0302 4.2561C56.9531 3.17752 56.202 2.29247 55.1383 2.08C53.7552 1.80393 52.3519 1.99068 50.9593 1.93655C50.6372 1.92437 50.6873 2.1612 50.6873 2.35743C50.686 3.05573 50.6873 3.75403 50.6873 4.45233V4.45368Z" fill="#F6F6F6"/>
<path d="M72.9491 15.9065C69.5929 15.916 66.5913 13.7331 65.6156 10.1685C64.0715 4.52663 68.3465 -0.468376 74.2943 0.0350496C76.4501 0.217744 78.2797 1.06491 79.7345 2.69833C80.062 3.06508 80.1432 3.31408 79.6425 3.55497C79.564 3.59286 79.4963 3.66053 79.4354 3.72684C79.0782 4.10847 78.8332 4.08681 78.4502 3.66323C75.8573 0.792894 71.1384 0.787481 68.6023 3.66052C66.8024 5.69994 66.4831 8.08444 67.4913 10.538C68.5211 13.0429 70.5727 14.2785 73.2563 14.4192C75.3011 14.5261 77.0793 13.8495 78.4787 12.346C78.8576 11.94 79.0592 12.0496 79.3948 12.3135C80.1594 12.9171 80.1743 12.9144 79.4598 13.6072C77.8007 15.215 75.7734 15.8835 72.9464 15.9092L72.9491 15.9065Z" fill="#F6F6F6"/>
<path d="M22.9249 7.98167C22.9249 5.65941 22.9398 3.33716 22.9127 1.01491C22.9073 0.520956 23.0074 0.346381 23.5352 0.37074C24.4704 0.412693 24.4717 0.377507 24.4717 1.30181C24.4717 5.83399 24.4501 10.3648 24.4907 14.8956C24.4974 15.7347 23.994 15.4586 23.5853 15.5114C23.0886 15.575 22.9005 15.4397 22.91 14.8794C22.9465 12.5802 22.9249 10.2809 22.9249 7.98031V7.98167Z" fill="#F6F6F6"/>
</g>
<defs>
<clipPath id="clip0_81_4193">
<rect width="80" height="15.9066" fill="white"/>
</clipPath>
</defs>
</svg>
